# xmcd CD database file
#
# Track frame offsets:
#	150
#	18010
#	34062
#	49205
#	71370
#	92755
#	113210
#	134570
#
# Disc length: 2070 seconds
#
# Revision: 3
# Processed by: cddbd v1.5.2PL0 Copyright (c) Steve Scherf et al.
# Submitted via: CDex 1.70beta3
#
DISCID=65081408
DTITLE=Various Artist - アイドル雀士スーチーパイ ボーカルコレクション
DYEAR=1999
DGENRE=Pop
TTITLE0=かないみか／高橋美紀／西原久美子／こおろぎさとみ/Wai Wai
TTITLE1=吉田古奈美/Lonely Boy Lovely Girl
TTITLE2=こおろぎさとみ/星のほほえみ
TTITLE3=かないみか／高橋美紀/きっと…
TTITLE4=吉田古奈美／菊池志穂／西原久美子/いつだって大丈夫 (A)
TTITLE5=かないみか／高橋美紀／西原久美子／こおろぎさとみ/エール送るよ
TTITLE6=こおろぎさとみ／根谷美智子／高橋美紀/いつだって大丈夫 (B)
TTITLE7=かないみか/高橋美紀/忘れないで
EXTD=YEAR: 1999
EXTT0=
EXTT1=
EXTT2=
EXTT3=
EXTT4=
EXTT5=
EXTT6=
EXTT7=
PLAYORDER=
